<?xml version="1.0" encoding="UTF-8"?>
<!DOCTYPE svg PUBLIC "-//W3C//DTD SVG 1.1//EN" "http://www.w3.org/Graphics/SVG/1.1/DTD/svg11.dtd">
<svg xmlns="http://www.w3.org/2000/svg" version="1.1" width="285px" height="288px" style="shape-rendering:geometricPrecision; text-rendering:geometricPrecision; image-rendering:optimizeQuality; fill-rule:evenodd; clip-rule:evenodd" xmlns:xlink="http://www.w3.org/1999/xlink">
<g><path style="opacity:0.741" fill="#ffedb1" d="M 128.5,7.5 C 137.657,6.34235 146.991,6.17569 156.5,7C 161.047,7.42876 165.381,8.26209 169.5,9.5C 155.885,7.9743 142.218,7.30763 128.5,7.5 Z"/></g>
<g><path style="opacity:0.984" fill="#fae794" d="M 126.5,7.5 C 124.562,9.16276 122.228,9.82943 119.5,9.5C 118.167,9.5 116.833,9.5 115.5,9.5C 118.946,8.3126 122.613,7.64593 126.5,7.5 Z"/></g>
<g><path style="opacity:1" fill="#fccb07" d="M 126.5,7.5 C 127.167,7.5 127.833,7.5 128.5,7.5C 142.218,7.30763 155.885,7.9743 169.5,9.5C 169.833,9.5 170.167,9.5 170.5,9.5C 171.99,11.2798 173.99,11.9465 176.5,11.5C 176.833,11.5 177.167,11.5 177.5,11.5C 179.515,12.9238 181.848,13.5905 184.5,13.5C 184.833,13.5 185.167,13.5 185.5,13.5C 185.5,14.5 185.5,15.5 185.5,16.5C 189.64,16.6893 193.64,17.3559 197.5,18.5C 200.172,19.5014 202.838,20.5014 205.5,21.5C 206.502,23.0109 207.169,24.6776 207.5,26.5C 209.861,26.6741 212.194,27.0074 214.5,27.5C 215.341,29.5115 216.841,30.8448 219,31.5C 219.483,32.448 219.649,33.448 219.5,34.5C 223.264,35.5481 226.931,36.8815 230.5,38.5C 231.5,39.1667 232.5,39.8333 233.5,40.5C 233.525,43.179 234.858,44.5123 237.5,44.5C 237.525,47.179 238.858,48.5123 241.5,48.5C 241.67,51.204 243.003,52.8707 245.5,53.5C 247.167,54.5 248.5,55.8333 249.5,57.5C 249.643,59.2624 249.309,60.9291 248.5,62.5C 251.018,67.2004 254.684,70.5337 259.5,72.5C 260.906,72.9731 261.573,73.9731 261.5,75.5C 262.061,79.1684 263.728,82.1684 266.5,84.5C 266.166,87.491 267.166,89.8243 269.5,91.5C 269.335,95.5788 270.669,98.9122 273.5,101.5C 273.5,101.833 273.5,102.167 273.5,102.5C 276.254,115.963 278.254,129.629 279.5,143.5C 278.672,149.653 278.172,155.987 278,162.5C 275.121,171.291 273.288,180.291 272.5,189.5C 272.5,189.833 272.5,190.167 272.5,190.5C 271.849,191.091 271.182,191.757 270.5,192.5C 269.914,192.291 269.414,191.957 269,191.5C 268.667,194.167 268.333,196.833 268,199.5C 265.736,202.076 264.57,205.076 264.5,208.5C 263.167,208.5 261.833,208.5 260.5,208.5C 260.662,210.527 260.495,212.527 260,214.5C 259.667,214.167 259.333,213.833 259,213.5C 258.08,215.632 256.913,217.632 255.5,219.5C 254.548,221.045 254.215,222.712 254.5,224.5C 252.858,226.081 250.858,226.747 248.5,226.5C 248.5,227.5 248.5,228.5 248.5,229.5C 247.5,229.5 246.5,229.5 245.5,229.5C 244.908,232.127 244.575,234.794 244.5,237.5C 241.5,241.167 238.167,244.5 234.5,247.5C 232.94,247.481 231.44,247.148 230,246.5C 228.287,247.137 228.121,248.137 229.5,249.5C 227.659,250.23 225.825,250.897 224,251.5C 223.517,252.448 223.351,253.448 223.5,254.5C 219.5,253.833 217.833,255.5 218.5,259.5C 216.863,258.782 215.197,258.616 213.5,259C 213.957,259.414 214.291,259.914 214.5,260.5C 212.902,260.61 211.235,260.943 209.5,261.5C 208.614,262.325 208.281,263.325 208.5,264.5C 206.194,264.993 203.861,265.326 201.5,265.5C 201.567,266.959 201.234,268.292 200.5,269.5C 198.62,269.229 197.287,269.896 196.5,271.5C 189.786,271.738 183.786,273.738 178.5,277.5C 178.167,277.5 177.833,277.5 177.5,277.5C 158.245,280.412 138.911,281.078 119.5,279.5C 113.456,276.933 107.123,275.6 100.5,275.5C 100.167,275.5 99.8333,275.5 99.5,275.5C 97.1087,272.083 93.7754,270.75 89.5,271.5C 89.5858,270.504 89.2524,269.671 88.5,269C 85.8832,268.178 83.2165,267.678 80.5,267.5C 80.0269,266.094 79.0269,265.427 77.5,265.5C 77.5761,262.233 76.2427,260.899 73.5,261.5C 70.8434,259.392 67.8434,258.059 64.5,257.5C 64.1667,257.5 63.8333,257.5 63.5,257.5C 63.5858,256.504 63.2524,255.671 62.5,255C 60.5952,253.579 58.5952,252.412 56.5,251.5C 51.2791,245.444 45.6124,240.111 39.5,235.5C 38.551,233.263 37.8844,230.929 37.5,228.5C 35.0122,228.317 33.0122,227.317 31.5,225.5C 29.9076,221.071 28.0742,216.738 26,212.5C 25.3292,213.252 24.4959,213.586 23.5,213.5C 23.539,210.911 22.539,208.911 20.5,207.5C 19.0291,202.54 17.5291,197.54 16,192.5C 15.3292,191.748 14.4959,191.414 13.5,191.5C 12.2388,186.158 12.2388,180.825 13.5,175.5C 12.1667,175.5 10.8333,175.5 9.5,175.5C 8.00998,168.248 7.00998,160.914 6.5,153.5C 6.41739,142.484 6.75073,131.484 7.5,120.5C 7.5,119.833 7.5,119.167 7.5,118.5C 8.92381,116.485 9.59047,114.152 9.5,111.5C 10.4959,111.586 11.3292,111.252 12,110.5C 12.2902,105.368 13.1236,100.368 14.5,95.5C 16.8876,93.0731 18.5543,90.0731 19.5,86.5C 20.325,85.6143 21.325,85.281 22.5,85.5C 22.5,82.8333 22.5,80.1667 22.5,77.5C 24.3793,76.1032 26.0459,74.4365 27.5,72.5C 29.5235,68.8193 31.5235,65.1526 33.5,61.5C 37.1257,58.9052 39.7924,55.5719 41.5,51.5C 44.5,47.8333 47.8333,44.5 51.5,41.5C 55.0515,39.8892 58.0515,37.5558 60.5,34.5C 62.9505,31.7232 65.9505,29.7232 69.5,28.5C 73.7632,27.7758 77.0965,25.7758 79.5,22.5C 82.8333,21.8333 86.1667,21.1667 89.5,20.5C 89.5,19.5 89.5,18.5 89.5,17.5C 93.484,17.5307 97.3173,16.864 101,15.5C 101.333,15.8333 101.667,16.1667 102,16.5C 107.57,13.26 113.403,10.9267 119.5,9.5C 122.228,9.82943 124.562,9.16276 126.5,7.5 Z M 147.5,48.5 C 148.167,49.5 148.833,50.5 149.5,51.5C 150.13,57.9338 150.797,64.2671 151.5,70.5C 166.891,70.0646 182.225,70.5646 197.5,72C 201.903,75.255 202.57,79.0883 199.5,83.5C 198.373,84.1217 197.373,84.955 196.5,86C 170.663,86.1678 144.997,86.6678 119.5,87.5C 115.898,87.6924 112.898,89.0257 110.5,91.5C 110.167,91.5 109.833,91.5 109.5,91.5C 107.413,92.5846 106.08,94.2512 105.5,96.5C 104.094,96.9731 103.427,97.9731 103.5,99.5C 102.094,99.9731 101.427,100.973 101.5,102.5C 101.5,102.833 101.5,103.167 101.5,103.5C 98.1091,112.223 99.4425,120.223 105.5,127.5C 105.833,128.5 106.5,129.167 107.5,129.5C 110.127,133.315 113.794,135.315 118.5,135.5C 120.292,136.309 122.292,136.809 124.5,137C 139.5,137.333 154.5,137.667 169.5,138C 172.894,139.075 176.228,140.242 179.5,141.5C 180.514,142.674 181.847,143.34 183.5,143.5C 186.771,146.268 189.938,149.268 193,152.5C 195.193,156.23 197.36,159.897 199.5,163.5C 203.022,176.104 201.689,188.104 195.5,199.5C 194.094,199.973 193.427,200.973 193.5,202.5C 189.808,205.862 186.141,209.195 182.5,212.5C 176.552,215.57 170.219,217.237 163.5,217.5C 159.167,217.5 154.833,217.5 150.5,217.5C 150.5,223.167 150.5,228.833 150.5,234.5C 149.047,240.659 145.38,242.992 139.5,241.5C 136.834,239.511 135.167,236.844 134.5,233.5C 134.5,228.167 134.5,222.833 134.5,217.5C 118.833,217.5 103.167,217.5 87.5,217.5C 87.1667,216.5 86.5,215.833 85.5,215.5C 84.701,212.57 84.3677,209.57 84.5,206.5C 85.1667,206.5 85.5,206.167 85.5,205.5C 87.4734,204.513 89.4734,203.513 91.5,202.5C 109.247,203.085 127.081,203.418 145,203.5C 150.5,203.333 156,203.167 161.5,203C 163.382,202.802 165.048,202.302 166.5,201.5C 167.167,201.5 167.833,201.5 168.5,201.5C 170.819,201.008 172.819,200.008 174.5,198.5C 175.872,197.488 177.205,196.488 178.5,195.5C 185.678,187.512 187.344,178.512 183.5,168.5C 182.403,163.73 179.737,160.064 175.5,157.5C 173.421,155.127 170.754,153.794 167.5,153.5C 167.167,153.5 166.833,153.5 166.5,153.5C 152.006,152.669 137.339,152.169 122.5,152C 118.019,151.734 113.686,150.901 109.5,149.5C 106.696,147.595 103.696,145.929 100.5,144.5C 98.5398,142.844 96.5398,141.177 94.5,139.5C 90.2848,133.736 87.1181,127.403 85,120.5C 84.2803,113.464 84.4469,106.464 85.5,99.5C 87.986,92.5387 91.986,86.5387 97.5,81.5C 98.8333,80.8333 99.8333,79.8333 100.5,78.5C 101.71,78.0679 102.71,77.4013 103.5,76.5C 113.33,72.1432 123.664,70.1432 134.5,70.5C 134.295,64.1222 134.628,57.7889 135.5,51.5C 138.604,47.5283 142.604,46.5283 147.5,48.5 Z"/></g>
<g><path style="opacity:0.882" fill="#f9e287" d="M 170.5,9.5 C 172.786,9.59495 174.786,10.2616 176.5,11.5C 173.99,11.9465 171.99,11.2798 170.5,9.5 Z"/></g>
<g><path style="opacity:0.392" fill="#fded9f" d="M 177.5,11.5 C 180.152,11.4095 182.485,12.0762 184.5,13.5C 181.848,13.5905 179.515,12.9238 177.5,11.5 Z"/></g>
<g><path style="opacity:0.749" fill="#fdec9c" d="M 107.5,11.5 C 105.485,12.9238 103.152,13.5905 100.5,13.5C 102.515,12.0762 104.848,11.4095 107.5,11.5 Z"/></g>
<g><path style="opacity:1" fill="#f7cf3e" d="M 115.5,9.5 C 116.833,9.5 118.167,9.5 119.5,9.5C 113.403,10.9267 107.57,13.26 102,16.5C 101.667,16.1667 101.333,15.8333 101,15.5C 97.3173,16.864 93.484,17.5307 89.5,17.5C 92.9385,15.7957 96.6052,14.4624 100.5,13.5C 103.152,13.5905 105.485,12.9238 107.5,11.5C 109.993,10.2264 112.659,9.55975 115.5,9.5 Z"/></g>
<g><path style="opacity:1" fill="#f7d963" d="M 185.5,13.5 C 189.797,14.6546 193.797,16.3213 197.5,18.5C 193.64,17.3559 189.64,16.6893 185.5,16.5C 185.5,15.5 185.5,14.5 185.5,13.5 Z"/></g>
<g><path style="opacity:1" fill="#f6d556" d="M 89.5,17.5 C 89.5,18.5 89.5,19.5 89.5,20.5C 86.1667,21.1667 82.8333,21.8333 79.5,22.5C 82.5154,20.3256 85.8487,18.6589 89.5,17.5 Z"/></g>
<g><path style="opacity:1" fill="#f8d65b" d="M 79.5,22.5 C 77.0965,25.7758 73.7632,27.7758 69.5,28.5C 72.1612,25.4977 75.4945,23.4977 79.5,22.5 Z"/></g>
<g><path style="opacity:1" fill="#f9d968" d="M 205.5,21.5 C 208.709,23.2651 211.709,25.2651 214.5,27.5C 212.194,27.0074 209.861,26.6741 207.5,26.5C 207.169,24.6776 206.502,23.0109 205.5,21.5 Z"/></g>
<g><path style="opacity:1" fill="#f8d559" d="M 214.5,27.5 C 220.388,30.3932 225.722,34.0599 230.5,38.5C 226.931,36.8815 223.264,35.5481 219.5,34.5C 219.649,33.448 219.483,32.448 219,31.5C 216.841,30.8448 215.341,29.5115 214.5,27.5 Z"/></g>
<g><path style="opacity:1" fill="#fae277" d="M 60.5,34.5 C 58.0515,37.5558 55.0515,39.8892 51.5,41.5C 53.9485,38.4442 56.9485,36.1108 60.5,34.5 Z"/></g>
<g><path style="opacity:1" fill="#fedf85" d="M 233.5,40.5 C 235.167,41.5 236.5,42.8333 237.5,44.5C 234.858,44.5123 233.525,43.179 233.5,40.5 Z"/></g>
<g><path style="opacity:1" fill="#f9de69" d="M 147.5,48.5 C 142.604,46.5283 138.604,47.5283 135.5,51.5C 135.5,49.8333 135.5,48.1667 135.5,46.5C 139.846,46.3343 144.179,46.501 148.5,47C 147.944,47.3826 147.611,47.8826 147.5,48.5 Z"/></g>
<g><path style="opacity:1" fill="#f7d878" d="M 237.5,44.5 C 239.167,45.5 240.5,46.8333 241.5,48.5C 238.858,48.5123 237.525,47.179 237.5,44.5 Z"/></g>
<g><path style="opacity:0.906" fill="#fae18a" d="M 149.5,51.5 C 151.453,57.0738 152.12,63.0738 151.5,69.5C 151.5,69.8333 151.5,70.1667 151.5,70.5C 150.797,64.2671 150.13,57.9338 149.5,51.5 Z"/></g>
<g><path style="opacity:1" fill="#fbdc7d" d="M 241.5,48.5 C 243.063,49.9448 244.396,51.6115 245.5,53.5C 243.003,52.8707 241.67,51.204 241.5,48.5 Z"/></g>
<g><path style="opacity:0.945" fill="#f7df73" d="M 41.5,51.5 C 39.7924,55.5719 37.1257,58.9052 33.5,61.5C 35.6885,57.7929 38.3552,54.4595 41.5,51.5 Z"/></g>
<g><path style="opacity:1" fill="#f7d135" d="M 249.5,57.5 C 253.61,61.9508 256.944,66.9508 259.5,72.5C 254.684,70.5337 251.018,67.2004 248.5,62.5C 249.309,60.9291 249.643,59.2624 249.5,57.5 Z"/></g>
<g><path style="opacity:0.989" fill="#eecd4f" d="M 151.5,70.5 C 151.5,70.1667 151.5,69.8333 151.5,69.5C 167.025,69.2051 182.525,69.5385 198,70.5C 204.624,74.908 205.124,79.908 199.5,85.5C 199.5,84.8333 199.5,84.1667 199.5,83.5C 202.57,79.0883 201.903,75.255 197.5,72C 182.225,70.5646 166.891,70.0646 151.5,70.5 Z"/></g>
<g><path style="opacity:1" fill="#f4d762" d="M 135.5,51.5 C 134.628,57.7889 134.295,64.1222 134.5,70.5C 123.664,70.1432 113.33,72.1432 103.5,76.5C 104.007,75.1411 105.007,74.1411 106.5,73.5C 115.175,70.1404 124.175,68.8071 133.5,69.5C 133.334,63.8236 133.501,58.1569 134,52.5C 134.383,51.944 134.883,51.6107 135.5,51.5 Z"/></g>
<g><path style="opacity:1" fill="#f9d861" d="M 33.5,61.5 C 31.5235,65.1526 29.5235,68.8193 27.5,72.5C 26.0459,74.4365 24.3793,76.1032 22.5,77.5C 25.1819,71.4628 28.8486,66.1295 33.5,61.5 Z"/></g>
<g><path style="opacity:1" fill="#f6de71" d="M 261.5,75.5 C 263.723,78.1443 265.389,81.1443 266.5,84.5C 263.728,82.1684 262.061,79.1684 261.5,75.5 Z"/></g>
<g><path style="opacity:0.169" fill="#fee7a7" d="M 100.5,78.5 C 99.8333,79.8333 98.8333,80.8333 97.5,81.5C 97.5,79.5 98.5,78.5 100.5,78.5 Z"/></g>
<g><path style="opacity:1" fill="#f5d244" d="M 22.5,77.5 C 22.5,80.1667 22.5,82.8333 22.5,85.5C 21.325,85.281 20.325,85.6143 19.5,86.5C 18.5543,90.0731 16.8876,93.0731 14.5,95.5C 16.1006,88.9705 18.7673,82.9705 22.5,77.5 Z"/></g>
<g><path style="opacity:1" fill="#f9d659" d="M 97.5,81.5 C 91.986,86.5387 87.986,92.5387 85.5,99.5C 86.0065,93.9767 87.3398,88.6434 89.5,83.5C 90.8626,84.8793 91.8626,84.7126 92.5,83C 90.0638,81.6677 90.0638,80.5011 92.5,79.5C 93.8415,81.0049 95.5082,81.6715 97.5,81.5 Z"/></g>
<g><path style="opacity:0.532" fill="#fae38e" d="M 199.5,83.5 C 199.5,84.1667 199.5,84.8333 199.5,85.5C 197.521,87.1675 195.188,87.8342 192.5,87.5C 168.167,87.5 143.833,87.5 119.5,87.5C 144.997,86.6678 170.663,86.1678 196.5,86C 197.373,84.955 198.373,84.1217 199.5,83.5 Z"/></g>
<g><path style="opacity:1" fill="#f5cb34" d="M 119.5,87.5 C 143.833,87.5 168.167,87.5 192.5,87.5C 167.67,88.3322 142.67,88.8322 117.5,89C 115.559,90.9028 113.226,91.7361 110.5,91.5C 112.898,89.0257 115.898,87.6924 119.5,87.5 Z"/></g>
<g><path style="opacity:0.812" fill="#f6d86c" d="M 266.5,84.5 C 268.065,86.5093 269.065,88.8427 269.5,91.5C 267.166,89.8243 266.166,87.491 266.5,84.5 Z"/></g>
<g><path style="opacity:0.878" fill="#fae38b" d="M 109.5,91.5 C 108.92,93.7488 107.587,95.4154 105.5,96.5C 106.08,94.2512 107.413,92.5846 109.5,91.5 Z"/></g>
<g><path style="opacity:1" fill="#f6d456" d="M 269.5,91.5 C 271.4,94.5178 272.733,97.8512 273.5,101.5C 270.669,98.9122 269.335,95.5788 269.5,91.5 Z"/></g>
<g><path style="opacity:0.408" fill="#feeaa2" d="M 103.5,99.5 C 103.573,101.027 102.906,102.027 101.5,102.5C 101.427,100.973 102.094,99.9731 103.5,99.5 Z"/></g>
<g><path style="opacity:1" fill="#f6d348" d="M 14.5,95.5 C 13.1236,100.368 12.2902,105.368 12,110.5C 11.3292,111.252 10.4959,111.586 9.5,111.5C 9.99051,105.7 11.6572,100.367 14.5,95.5 Z"/></g>
<g><path style="opacity:0.985" fill="#f6d556" d="M 85.5,99.5 C 84.4469,106.464 84.2803,113.464 85,120.5C 87.1181,127.403 90.2848,133.736 94.5,139.5C 93.448,139.649 92.448,139.483 91.5,139C 90.6667,137.5 89.5,136.333 88,135.5C 83.5895,125.266 81.9228,114.6 83,103.5C 83.2004,101.68 84.0337,100.347 85.5,99.5 Z"/></g>
<g><path style="opacity:0.957" fill="#fae087" d="M 9.5,111.5 C 9.59047,114.152 8.92381,116.485 7.5,118.5C 7.40953,115.848 8.07619,113.515 9.5,111.5 Z"/></g>
<g><path style="opacity:1" fill="#f6d85e" d="M 273.5,102.5 C 280.101,120.7 282.101,139.367 279.5,158.5C 279.5,153.5 279.5,148.5 279.5,143.5C 278.254,129.629 276.254,115.963 273.5,102.5 Z"/></g>
<g><path style="opacity:1" fill="#f6d960" d="M 101.5,103.5 C 101.334,107.846 101.501,112.179 102,116.5C 103.461,120.107 104.628,123.773 105.5,127.5C 99.4425,120.223 98.1091,112.223 101.5,103.5 Z"/></g>
<g><path style="opacity:1" fill="#f4ce36" d="M 107.5,129.5 C 110.875,131.625 114.541,133.125 118.5,134C 133.339,134.169 148.006,134.669 162.5,135.5C 147.833,135.5 133.167,135.5 118.5,135.5C 113.794,135.315 110.127,133.315 107.5,129.5 Z"/></g>
<g><path style="opacity:0.802" fill="#f9e294" d="M 118.5,135.5 C 133.167,135.5 147.833,135.5 162.5,135.5C 167.883,136.348 173.217,137.515 178.5,139C 179.252,139.671 179.586,140.504 179.5,141.5C 176.228,140.242 172.894,139.075 169.5,138C 154.5,137.667 139.5,137.333 124.5,137C 122.292,136.809 120.292,136.309 118.5,135.5 Z"/></g>
<g><path style="opacity:1" fill="#f5d866" d="M 94.5,139.5 C 96.5398,141.177 98.5398,142.844 100.5,144.5C 97.1299,144.371 95.1299,142.705 94.5,139.5 Z"/></g>
<g><path style="opacity:0.992" fill="#f1d34a" d="M 7.5,120.5 C 6.75073,131.484 6.41739,142.484 6.5,153.5C 6.16667,153.5 5.83333,153.5 5.5,153.5C 5.33358,144.827 5.50025,136.16 6,127.5C 6.18618,124.964 6.68618,122.631 7.5,120.5 Z"/></g>
<g><path style="opacity:1" fill="#fada6a" d="M 100.5,144.5 C 103.696,145.929 106.696,147.595 109.5,149.5C 104.958,150.235 101.958,148.569 100.5,144.5 Z"/></g>
<g><path style="opacity:0.539" fill="#fae590" d="M 109.5,149.5 C 113.686,150.901 118.019,151.734 122.5,152C 137.339,152.169 152.006,152.669 166.5,153.5C 148.137,153.851 129.804,153.351 111.5,152C 110.619,151.292 109.953,150.458 109.5,149.5 Z"/></g>
<g><path style="opacity:0.804" fill="#fbe89d" d="M 167.5,153.5 C 170.754,153.794 173.421,155.127 175.5,157.5C 172.455,156.721 169.789,155.387 167.5,153.5 Z"/></g>
<g><path style="opacity:1" fill="#f6d54a" d="M 183.5,143.5 C 187.49,144.738 191.157,146.405 194.5,148.5C 194.833,150.5 195.167,152.5 195.5,154.5C 196.833,154.5 198.167,154.5 199.5,154.5C 199.5,157.5 199.5,160.5 199.5,163.5C 197.36,159.897 195.193,156.23 193,152.5C 189.938,149.268 186.771,146.268 183.5,143.5 Z"/></g>
<g><path style="opacity:0.631" fill="#f9e07b" d="M 5.5,153.5 C 5.83333,153.5 6.16667,153.5 6.5,153.5C 7.00998,160.914 8.00998,168.248 9.5,175.5C 9.5,176.5 9.5,177.5 9.5,178.5C 6.99756,170.481 5.66423,162.148 5.5,153.5 Z"/></g>
<g><path style="opacity:1" fill="#f6cf3b" d="M 279.5,143.5 C 279.5,148.5 279.5,153.5 279.5,158.5C 280.315,160.931 279.982,163.264 278.5,165.5C 277.058,170.291 276.058,175.291 275.5,180.5C 275.253,183.854 274.253,186.854 272.5,189.5C 273.288,180.291 275.121,171.291 278,162.5C 278.172,155.987 278.672,149.653 279.5,143.5 Z"/></g>
<g><path style="opacity:0.8" fill="#f9e17c" d="M 278.5,165.5 C 278.579,170.831 277.579,175.831 275.5,180.5C 276.058,175.291 277.058,170.291 278.5,165.5 Z"/></g>
<g><path style="opacity:1" fill="#f6d244" d="M 9.5,175.5 C 10.8333,175.5 12.1667,175.5 13.5,175.5C 12.2388,180.825 12.2388,186.158 13.5,191.5C 11.4111,187.499 10.0777,183.165 9.5,178.5C 9.5,177.5 9.5,176.5 9.5,175.5 Z"/></g>
<g><path style="opacity:1" fill="#f6d552" d="M 183.5,168.5 C 187.344,178.512 185.678,187.512 178.5,195.5C 178.002,191.781 178.836,188.447 181,185.5C 181.333,185.833 181.667,186.167 182,186.5C 184.372,180.62 184.872,174.62 183.5,168.5 Z"/></g>
<g><path style="opacity:0.98" fill="#f7d75b" d="M 199.5,163.5 C 200.5,163.5 201.5,163.5 202.5,163.5C 202.816,172.884 202.316,182.218 201,191.5C 199.657,194.647 197.823,197.314 195.5,199.5C 201.689,188.104 203.022,176.104 199.5,163.5 Z"/></g>
<g><path style="opacity:1" fill="#f5d95b" d="M 13.5,191.5 C 14.4959,191.414 15.3292,191.748 16,192.5C 17.5291,197.54 19.0291,202.54 20.5,207.5C 17.0995,202.693 14.7662,197.36 13.5,191.5 Z"/></g>
<g><path style="opacity:0.612" fill="#f7e38a" d="M 174.5,198.5 C 172.819,200.008 170.819,201.008 168.5,201.5C 169.911,199.461 171.911,198.461 174.5,198.5 Z"/></g>
<g><path style="opacity:0.635" fill="#ffe89e" d="M 195.5,199.5 C 195.573,201.027 194.906,202.027 193.5,202.5C 193.427,200.973 194.094,199.973 195.5,199.5 Z"/></g>
<g><path style="opacity:0.813" fill="#fae4a2" d="M 166.5,201.5 C 165.048,202.302 163.382,202.802 161.5,203C 156,203.167 150.5,203.333 145,203.5C 127.081,203.418 109.247,203.085 91.5,202.5C 89.4734,203.513 87.4734,204.513 85.5,205.5C 85.5,204.5 85.5,203.5 85.5,202.5C 112.475,201.535 139.475,201.202 166.5,201.5 Z"/></g>
<g><path style="opacity:0.988" fill="#f7dd68" d="M 193.5,202.5 C 191.409,205.771 189.076,208.937 186.5,212C 185.207,212.49 183.873,212.657 182.5,212.5C 186.141,209.195 189.808,205.862 193.5,202.5 Z"/></g>
<g><path style="opacity:1" fill="#f9db62" d="M 272.5,190.5 C 270.899,197.03 268.233,203.03 264.5,208.5C 264.57,205.076 265.736,202.076 268,199.5C 268.333,196.833 268.667,194.167 269,191.5C 269.414,191.957 269.914,192.291 270.5,192.5C 271.182,191.757 271.849,191.091 272.5,190.5 Z"/></g>
<g><path style="opacity:0.816" fill="#fae07d" d="M 20.5,207.5 C 22.539,208.911 23.539,210.911 23.5,213.5C 21.6535,211.97 20.6535,209.97 20.5,207.5 Z"/></g>
<g><path style="opacity:0.42" fill="#fff0a3" d="M 84.5,206.5 C 84.3677,209.57 84.701,212.57 85.5,215.5C 84.8826,215.389 84.3826,215.056 84,214.5C 83.1993,211.633 83.3659,208.966 84.5,206.5 Z"/></g>
<g><path style="opacity:1" fill="#f7d65b" d="M 31.5,225.5 C 28.3401,221.852 25.6735,217.852 23.5,213.5C 24.4959,213.586 25.3292,213.252 26,212.5C 28.0742,216.738 29.9076,221.071 31.5,225.5 Z"/></g>
<g><path style="opacity:1" fill="#f8d651" d="M 264.5,208.5 C 262.165,214.514 258.831,219.848 254.5,224.5C 254.215,222.712 254.548,221.045 255.5,219.5C 256.913,217.632 258.08,215.632 259,213.5C 259.333,213.833 259.667,214.167 260,214.5C 260.495,212.527 260.662,210.527 260.5,208.5C 261.833,208.5 263.167,208.5 264.5,208.5 Z"/></g>
<g><path style="opacity:0.808" fill="#f7e193" d="M 87.5,217.5 C 103.167,217.5 118.833,217.5 134.5,217.5C 134.5,222.833 134.5,228.167 134.5,233.5C 133.514,229.03 133.181,224.363 133.5,219.5C 118.496,219.667 103.496,219.5 88.5,219C 87.944,218.617 87.6107,218.117 87.5,217.5 Z"/></g>
<g><path style="opacity:0.523" fill="#fce6a2" d="M 163.5,217.5 C 159.971,219.423 155.971,220.089 151.5,219.5C 151.821,224.695 151.487,229.695 150.5,234.5C 150.5,228.833 150.5,223.167 150.5,217.5C 154.833,217.5 159.167,217.5 163.5,217.5 Z"/></g>
<g><path style="opacity:1" fill="#f6d858" d="M 31.5,225.5 C 33.0122,227.317 35.0122,228.317 37.5,228.5C 37.8844,230.929 38.551,233.263 39.5,235.5C 36.4838,232.48 33.8171,229.146 31.5,225.5 Z"/></g>
<g><path style="opacity:1" fill="#fdd556" d="M 254.5,224.5 C 251.926,229.409 248.592,233.742 244.5,237.5C 244.575,234.794 244.908,232.127 245.5,229.5C 246.5,229.5 247.5,229.5 248.5,229.5C 248.5,228.5 248.5,227.5 248.5,226.5C 250.858,226.747 252.858,226.081 254.5,224.5 Z"/></g>
<g><path style="opacity:1" fill="#f3d03e" d="M 182.5,212.5 C 182.063,214.074 181.063,215.241 179.5,216C 170.922,219.679 161.922,221.179 152.5,220.5C 153.055,227.704 152.222,234.704 150,241.5C 146.389,244.144 142.889,244.144 139.5,241.5C 145.38,242.992 149.047,240.659 150.5,234.5C 151.487,229.695 151.821,224.695 151.5,219.5C 155.971,220.089 159.971,219.423 163.5,217.5C 170.219,217.237 176.552,215.57 182.5,212.5 Z"/></g>
<g><path style="opacity:1" fill="#f8dc73" d="M 39.5,235.5 C 45.6124,240.111 51.2791,245.444 56.5,251.5C 52.728,248.906 49.0613,246.073 45.5,243C 43.3714,240.561 41.3714,238.061 39.5,235.5 Z"/></g>
<g><path style="opacity:1" fill="#f9d551" d="M 234.5,247.5 C 229.533,251.984 224.2,255.984 218.5,259.5C 217.833,255.5 219.5,253.833 223.5,254.5C 223.351,253.448 223.517,252.448 224,251.5C 225.825,250.897 227.659,250.23 229.5,249.5C 228.121,248.137 228.287,247.137 230,246.5C 231.44,247.148 232.94,247.481 234.5,247.5 Z"/></g>
<g><path style="opacity:1" fill="#f8de71" d="M 56.5,251.5 C 58.5952,252.412 60.5952,253.579 62.5,255C 63.2524,255.671 63.5858,256.504 63.5,257.5C 60.5677,256.2 58.2344,254.2 56.5,251.5 Z"/></g>
<g><path style="opacity:1" fill="#fad751" d="M 218.5,259.5 C 213.153,263.844 207.153,267.177 200.5,269.5C 201.234,268.292 201.567,266.959 201.5,265.5C 203.861,265.326 206.194,264.993 208.5,264.5C 208.281,263.325 208.614,262.325 209.5,261.5C 211.235,260.943 212.902,260.61 214.5,260.5C 214.291,259.914 213.957,259.414 213.5,259C 215.197,258.616 216.863,258.782 218.5,259.5 Z"/></g>
<g><path style="opacity:1" fill="#f6d244" d="M 64.5,257.5 C 67.8434,258.059 70.8434,259.392 73.5,261.5C 76.2427,260.899 77.5761,262.233 77.5,265.5C 73.5766,264.205 69.9099,262.372 66.5,260C 65.6195,259.292 64.9528,258.458 64.5,257.5 Z"/></g>
<g><path style="opacity:0.376" fill="#feeba0" d="M 77.5,265.5 C 79.0269,265.427 80.0269,266.094 80.5,267.5C 78.9731,267.573 77.9731,266.906 77.5,265.5 Z"/></g>
<g><path style="opacity:1" fill="#f7d558" d="M 80.5,267.5 C 83.2165,267.678 85.8832,268.178 88.5,269C 89.2524,269.671 89.5858,270.504 89.5,271.5C 86.2558,270.537 83.2558,269.204 80.5,267.5 Z"/></g>
<g><path style="opacity:0.027" fill="#fef29b" d="M 200.5,269.5 C 199.486,270.674 198.153,271.34 196.5,271.5C 197.287,269.896 198.62,269.229 200.5,269.5 Z"/></g>
<g><path style="opacity:1" fill="#f3da5f" d="M 89.5,271.5 C 93.7754,270.75 97.1087,272.083 99.5,275.5C 95.8733,274.679 92.54,273.346 89.5,271.5 Z"/></g>
<g><path style="opacity:1" fill="#f7de72" d="M 196.5,271.5 C 190.915,274.473 184.915,276.473 178.5,277.5C 183.786,273.738 189.786,271.738 196.5,271.5 Z"/></g>
<g><path style="opacity:1" fill="#f7d661" d="M 100.5,275.5 C 107.123,275.6 113.456,276.933 119.5,279.5C 119.5,279.833 119.5,280.167 119.5,280.5C 112.868,279.593 106.534,277.927 100.5,275.5 Z"/></g>
<g><path style="opacity:0.333" fill="#fef1be" d="M 170.5,279.5 C 167.997,280.371 165.33,281.037 162.5,281.5C 162.611,280.883 162.944,280.383 163.5,280C 165.81,279.503 168.143,279.337 170.5,279.5 Z"/></g>
<g><path style="opacity:1" fill="#f7d65b" d="M 177.5,277.5 C 175.485,278.924 173.152,279.59 170.5,279.5C 168.143,279.337 165.81,279.503 163.5,280C 162.944,280.383 162.611,280.883 162.5,281.5C 148.096,283.092 133.762,282.759 119.5,280.5C 119.5,280.167 119.5,279.833 119.5,279.5C 138.911,281.078 158.245,280.412 177.5,277.5 Z"/></g>
</svg>
