<?xml version="1.0" encoding="UTF-8"?>
<!DOCTYPE svg PUBLIC "-//W3C//DTD SVG 1.1//EN" "http://www.w3.org/Graphics/SVG/1.1/DTD/svg11.dtd">
<svg xmlns="http://www.w3.org/2000/svg" version="1.1" width="297px" height="298px" style="shape-rendering:geometricPrecision; text-rendering:geometricPrecision; image-rendering:optimizeQuality; fill-rule:evenodd; clip-rule:evenodd" xmlns:xlink="http://www.w3.org/1999/xlink">
<g><path style="opacity:1" fill="#017139" d="M 181.5,16.5 C 184.251,18.9745 187.584,19.9745 191.5,19.5C 191.414,20.4959 191.748,21.3292 192.5,22C 194.81,22.4966 197.143,22.6633 199.5,22.5C 199.859,24.4846 200.692,25.1513 202,24.5C 202.5,25.6667 203.333,26.5 204.5,27C 203.328,27.4186 202.328,28.0853 201.5,29C 207.497,29.6426 213.497,31.1426 219.5,33.5C 220.492,33.3284 221.158,33.6618 221.5,34.5C 222.117,36.2292 223.117,37.7292 224.5,39C 227.282,41.3838 230.449,43.2171 234,44.5C 234.617,45.4491 234.451,46.2825 233.5,47C 235.134,47.4935 236.801,47.6602 238.5,47.5C 243.208,51.2066 247.208,55.5399 250.5,60.5C 250.335,65.3885 252.335,69.0552 256.5,71.5C 255.674,72.451 255.508,73.451 256,74.5C 257.011,73.6634 258.178,73.33 259.5,73.5C 259.183,76.5465 260.516,78.2132 263.5,78.5C 266.927,83.0157 269.593,88.0157 271.5,93.5C 271.159,98.8181 272.659,103.485 276,107.5C 276.774,111.147 277.441,114.814 278,118.5C 278.377,119.942 279.21,120.942 280.5,121.5C 284.493,140.072 284.493,158.739 280.5,177.5C 278.907,178.348 277.74,179.681 277,181.5C 276.502,184.817 276.335,188.15 276.5,191.5C 275.25,191.577 274.417,192.244 274,193.5C 271.616,200.951 269.116,207.618 266.5,213.5C 264.519,212.652 262.519,212.152 260.5,212C 261.308,212.308 261.975,212.808 262.5,213.5C 262.218,215.987 262.218,218.653 262.5,221.5C 261.778,221.082 261.278,220.416 261,219.5C 260.716,221.886 259.716,222.552 258,221.5C 257.316,222.784 257.483,223.951 258.5,225C 256.421,227.743 254.088,230.243 251.5,232.5C 250.294,234.794 249.294,237.127 248.5,239.5C 245.5,239.833 243.833,241.5 243.5,244.5C 242.167,244.5 240.833,244.5 239.5,244.5C 238.801,246.995 237.801,249.328 236.5,251.5C 234.801,251.34 233.134,251.506 231.5,252C 232.337,253.011 232.67,254.178 232.5,255.5C 230.508,255.672 228.842,255.005 227.5,253.5C 226.355,254.776 226.355,256.109 227.5,257.5C 225.333,258.948 223,260.115 220.5,261C 219.663,262.011 219.33,263.178 219.5,264.5C 218.127,264.343 216.793,264.51 215.5,265C 215.833,265.333 216.167,265.667 216.5,266C 214.881,266.236 213.881,267.069 213.5,268.5C 210.513,269.258 207.513,270.091 204.5,271C 205.598,271.77 205.598,272.603 204.5,273.5C 202.574,275.293 200.241,276.293 197.5,276.5C 194.351,276.211 191.351,276.711 188.5,278C 189.056,278.383 189.389,278.883 189.5,279.5C 180.883,282.737 171.883,284.903 162.5,286C 150.757,286.811 139.091,286.644 127.5,285.5C 126.192,284.768 124.858,283.934 123.5,283C 116.606,282.185 109.939,280.519 103.5,278C 101.423,277.193 99.5893,276.026 98,274.5C 97.586,274.957 97.086,275.291 96.5,275.5C 94.8849,274.846 93.2182,274.346 91.5,274C 86.1274,271.213 80.9607,268.047 76,264.5C 75.6667,264.833 75.3333,265.167 75,265.5C 74.5172,264.552 74.3505,263.552 74.5,262.5C 72.4086,262.682 70.4086,262.348 68.5,261.5C 67.6143,260.675 67.281,259.675 67.5,258.5C 65.4352,258.483 63.4352,258.15 61.5,257.5C 56.8677,254.202 52.5344,250.536 48.5,246.5C 48.6107,245.883 48.944,245.383 49.5,245C 46.4956,242.41 44.3289,239.243 43,235.5C 41.0065,234.086 38.8398,233.086 36.5,232.5C 36.9044,227.239 34.571,223.906 29.5,222.5C 27.7497,221.341 26.7497,219.674 26.5,217.5C 25.9782,214.432 25.1449,211.432 24,208.5C 22.8873,207.695 21.7206,207.028 20.5,206.5C 20.5,206.167 20.5,205.833 20.5,205.5C 19.6849,201.856 18.8516,198.189 18,194.5C 16.9681,192.973 15.8014,191.64 14.5,190.5C 14.33,189.178 14.6634,188.011 15.5,187C 14.6762,184.047 13.3428,181.547 11.5,179.5C 11.5,179.167 11.5,178.833 11.5,178.5C 11.8168,174.298 11.4834,170.298 10.5,166.5C 9.97027,151.414 10.8036,136.414 13,121.5C 15.32,115.366 17.1533,109.033 18.5,102.5C 19.2653,99.9039 19.5987,97.2372 19.5,94.5C 20.3257,91.5152 21.659,88.8485 23.5,86.5C 25.0744,86.0629 26.2411,85.0629 27,83.5C 27.3333,83.8333 27.6667,84.1667 28,84.5C 29.1434,81.2231 29.9767,77.8898 30.5,74.5C 35.9621,64.3614 43.2954,55.6948 52.5,48.5C 56.4896,49.3845 59.3229,48.0511 61,44.5C 61.7247,45.0585 62.5581,45.3918 63.5,45.5C 65.3254,44.3489 67.3254,43.6822 69.5,43.5C 69.6168,41.5165 68.9501,39.8498 67.5,38.5C 69.6106,37.0512 71.9439,36.0512 74.5,35.5C 75.4287,34.3112 75.762,32.9778 75.5,31.5C 78.8784,32.1089 80.8784,30.7756 81.5,27.5C 83.1992,27.6602 84.8659,27.4935 86.5,27C 89.8819,25.2545 93.3819,23.7545 97,22.5C 100.104,24.8222 103.604,26.4888 107.5,27.5C 108.167,27.1667 108.833,26.8333 109.5,26.5C 106.606,25.6015 103.939,24.2681 101.5,22.5C 103.42,21.0239 105.587,20.0239 108,19.5C 110.12,20.4589 112.287,20.6256 114.5,20C 113.5,19.6667 112.5,19.3333 111.5,19C 115.152,16.9177 119.152,15.9177 123.5,16C 124.623,14.9563 125.956,14.2896 127.5,14C 136.833,13.3333 146.167,13.3333 155.5,14C 163.958,16 172.625,16.8334 181.5,16.5 Z M 153.5,56.5 C 153.5,62.8333 153.5,69.1667 153.5,75.5C 168.167,75.5 182.833,75.5 197.5,75.5C 203.24,76.9732 205.407,80.6399 204,86.5C 202.833,87.6667 201.667,88.8333 200.5,90C 174.216,91.2975 147.882,91.9642 121.5,92C 113.823,93.8519 108.49,98.3519 105.5,105.5C 100.354,116.591 102.354,126.258 111.5,134.5C 112.262,136.262 113.596,137.262 115.5,137.5C 118.321,139.82 121.654,140.987 125.5,141C 139.496,141.5 153.496,141.667 167.5,141.5C 174.095,142.699 180.429,144.699 186.5,147.5C 190.5,150.833 194.167,154.5 197.5,158.5C 198.596,161.032 199.929,163.365 201.5,165.5C 206.096,178.942 205.096,191.942 198.5,204.5C 193.693,210.977 187.693,215.977 180.5,219.5C 175.716,221.538 170.716,222.538 165.5,222.5C 161.5,222.5 157.5,222.5 153.5,222.5C 153.5,228.5 153.5,234.5 153.5,240.5C 150.876,246.235 146.542,247.901 140.5,245.5C 139.406,243.641 138.573,241.641 138,239.5C 137.501,233.843 137.334,228.176 137.5,222.5C 122.163,222.667 106.83,222.5 91.5,222C 86.6686,218.533 85.8353,214.366 89,209.5C 89.7504,208.874 90.5838,208.374 91.5,208C 116.5,207.667 141.5,207.333 166.5,207C 168.586,206.685 170.586,206.185 172.5,205.5C 178.767,203.566 183.1,199.566 185.5,193.5C 186.793,192.158 187.626,190.491 188,188.5C 188.814,183.98 188.647,179.646 187.5,175.5C 187.206,172.246 185.873,169.579 183.5,167.5C 180.45,162.622 176.117,159.456 170.5,158C 156.167,157.667 141.833,157.333 127.5,157C 121.594,156.883 115.928,155.716 110.5,153.5C 104.562,149.894 99.2288,145.561 94.5,140.5C 88.6796,131.7 86.3463,122.033 87.5,111.5C 88.0078,107.803 88.6745,104.136 89.5,100.5C 92.0773,95.9144 95.0773,91.581 98.5,87.5C 100.167,86.5 101.5,85.1667 102.5,83.5C 108.788,79.6823 115.455,77.0156 122.5,75.5C 127.5,75.5 132.5,75.5 137.5,75.5C 137.336,68.7978 137.669,62.1311 138.5,55.5C 143.887,50.0972 148.887,50.4306 153.5,56.5 Z"/></g>
<g><path style="opacity:1" fill="#69a584" d="M 109.5,16.5 C 107.485,17.9238 105.152,18.5905 102.5,18.5C 104.515,17.0762 106.848,16.4095 109.5,16.5 Z"/></g>
<g><path style="opacity:1" fill="#539372" d="M 181.5,16.5 C 185.162,16.7234 188.495,17.7234 191.5,19.5C 187.584,19.9745 184.251,18.9745 181.5,16.5 Z"/></g>
<g><path style="opacity:1" fill="#51936e" d="M 191.5,19.5 C 194.443,19.9802 197.11,20.9802 199.5,22.5C 197.143,22.6633 194.81,22.4966 192.5,22C 191.748,21.3292 191.414,20.4959 191.5,19.5 Z"/></g>
<g><path style="opacity:1" fill="#328053" d="M 181.5,16.5 C 172.625,16.8334 163.958,16 155.5,14C 146.167,13.3333 136.833,13.3333 127.5,14C 125.956,14.2896 124.623,14.9563 123.5,16C 119.152,15.9177 115.152,16.9177 111.5,19C 112.5,19.3333 113.5,19.6667 114.5,20C 112.287,20.6256 110.12,20.4589 108,19.5C 105.587,20.0239 103.42,21.0239 101.5,22.5C 103.939,24.2681 106.606,25.6015 109.5,26.5C 108.833,26.8333 108.167,27.1667 107.5,27.5C 103.604,26.4888 100.104,24.8222 97,22.5C 93.3819,23.7545 89.8819,25.2545 86.5,27C 84.8659,27.4935 83.1992,27.6602 81.5,27.5C 88.0127,23.5451 95.0127,20.5451 102.5,18.5C 105.152,18.5905 107.485,17.9238 109.5,16.5C 121.264,12.8485 133.431,11.1818 146,11.5C 158.26,11.0743 170.093,12.7409 181.5,16.5 Z"/></g>
<g><path style="opacity:1" fill="#2a7c4e" d="M 199.5,22.5 C 206.817,25.155 213.484,28.8216 219.5,33.5C 213.497,31.1426 207.497,29.6426 201.5,29C 202.328,28.0853 203.328,27.4186 204.5,27C 203.333,26.5 202.5,25.6667 202,24.5C 200.692,25.1513 199.859,24.4846 199.5,22.5 Z"/></g>
<g><path style="opacity:1" fill="#1d7545" d="M 81.5,27.5 C 80.8784,30.7756 78.8784,32.1089 75.5,31.5C 75.762,32.9778 75.4287,34.3112 74.5,35.5C 71.9439,36.0512 69.6106,37.0512 67.5,38.5C 68.9501,39.8498 69.6168,41.5165 69.5,43.5C 67.3254,43.6822 65.3254,44.3489 63.5,45.5C 62.5581,45.3918 61.7247,45.0585 61,44.5C 59.3229,48.0511 56.4896,49.3845 52.5,48.5C 60.92,39.7889 70.5867,32.7889 81.5,27.5 Z"/></g>
<g><path style="opacity:1" fill="#488c67" d="M 221.5,34.5 C 228.026,37.6903 233.692,42.0236 238.5,47.5C 236.801,47.6602 235.134,47.4935 233.5,47C 234.451,46.2825 234.617,45.4491 234,44.5C 230.449,43.2171 227.282,41.3838 224.5,39C 223.117,37.7292 222.117,36.2292 221.5,34.5 Z"/></g>
<g><path style="opacity:1" fill="#2a794c" d="M 250.5,60.5 C 255.81,65.7846 260.144,71.7846 263.5,78.5C 260.516,78.2132 259.183,76.5465 259.5,73.5C 258.178,73.33 257.011,73.6634 256,74.5C 255.508,73.451 255.674,72.451 256.5,71.5C 252.335,69.0552 250.335,65.3885 250.5,60.5 Z"/></g>
<g><path style="opacity:0.506" fill="#7cba9a" d="M 153.5,56.5 C 154.49,62.31 154.823,68.31 154.5,74.5C 169.01,74.1707 183.343,74.5041 197.5,75.5C 182.833,75.5 168.167,75.5 153.5,75.5C 153.5,69.1667 153.5,62.8333 153.5,56.5 Z"/></g>
<g><path style="opacity:1" fill="#3c875c" d="M 122.5,75.5 C 115.455,77.0156 108.788,79.6823 102.5,83.5C 103.179,80.6424 104.512,78.1424 106.5,76C 111.813,74.3889 117.147,74.2223 122.5,75.5 Z"/></g>
<g><path style="opacity:1" fill="#337c54" d="M 30.5,74.5 C 29.9767,77.8898 29.1434,81.2231 28,84.5C 27.6667,84.1667 27.3333,83.8333 27,83.5C 26.2411,85.0629 25.0744,86.0629 23.5,86.5C 24.8278,81.8349 27.1611,77.8349 30.5,74.5 Z"/></g>
<g><path style="opacity:1" fill="#478965" d="M 98.5,87.5 C 95.0773,91.581 92.0773,95.9144 89.5,100.5C 90.0181,97.1127 90.8514,93.7794 92,90.5C 94.0344,89.1379 96.2011,88.1379 98.5,87.5 Z"/></g>
<g><path style="opacity:1" fill="#217047" d="M 105.5,105.5 C 108.49,98.3519 113.823,93.8519 121.5,92C 147.882,91.9642 174.216,91.2975 200.5,90C 201.667,88.8333 202.833,87.6667 204,86.5C 205.407,80.6399 203.24,76.9732 197.5,75.5C 183.343,74.5041 169.01,74.1707 154.5,74.5C 154.823,68.31 154.49,62.31 153.5,56.5C 148.887,50.4306 143.887,50.0972 138.5,55.5C 138.256,51.0512 140.422,49.3846 145,50.5C 146.833,50.6667 148.667,50.8333 150.5,51C 152.156,52.8294 154.156,54.1628 156.5,55C 156.01,60.6802 156.01,66.6802 156.5,73C 172.939,72.9561 189.272,73.7895 205.5,75.5C 206.481,80.1292 206.648,84.7959 206,89.5C 204.391,90.1466 202.891,90.98 201.5,92C 175.5,92.3333 149.5,92.6667 123.5,93C 118.305,95.686 113.305,98.686 108.5,102C 108.026,103.729 107.026,104.895 105.5,105.5 Z"/></g>
<g><path style="opacity:1" fill="#4f916e" d="M 19.5,94.5 C 19.5987,97.2372 19.2653,99.9039 18.5,102.5C 17.8333,102.5 17.1667,102.5 16.5,102.5C 16.7329,99.4582 17.7329,96.7916 19.5,94.5 Z"/></g>
<g><path style="opacity:1" fill="#418560" d="M 271.5,93.5 C 276.075,102.228 279.075,111.561 280.5,121.5C 279.21,120.942 278.377,119.942 278,118.5C 277.441,114.814 276.774,111.147 276,107.5C 272.659,103.485 271.159,98.8181 271.5,93.5 Z"/></g>
<g><path style="opacity:1" fill="#2a774d" d="M 16.5,102.5 C 17.1667,102.5 17.8333,102.5 18.5,102.5C 17.1533,109.033 15.32,115.366 13,121.5C 10.8036,136.414 9.97027,151.414 10.5,166.5C 10.5,167.167 10.1667,167.5 9.5,167.5C 8.35545,155.576 8.18878,143.576 9,131.5C 9.4865,125.889 10.6532,120.556 12.5,115.5C 13.9238,113.485 14.5905,111.152 14.5,108.5C 14.595,106.214 15.2616,104.214 16.5,102.5 Z"/></g>
<g><path style="opacity:1" fill="#6da183" d="M 14.5,108.5 C 14.5905,111.152 13.9238,113.485 12.5,115.5C 12.4095,112.848 13.0762,110.515 14.5,108.5 Z"/></g>
<g><path style="opacity:1" fill="#40835d" d="M 105.5,105.5 C 104.578,110.472 104.412,115.472 105,120.5C 106.528,125.644 108.695,130.31 111.5,134.5C 102.354,126.258 100.354,116.591 105.5,105.5 Z"/></g>
<g><path style="opacity:1" fill="#529672" d="M 87.5,111.5 C 86.3463,122.033 88.6796,131.7 94.5,140.5C 92.9081,141.602 92.0748,140.935 92,138.5C 91.6667,138.833 91.3333,139.167 91,139.5C 90.6238,136.025 89.2905,133.025 87,130.5C 86.18,123.986 86.3467,117.653 87.5,111.5 Z"/></g>
<g><path style="opacity:1" fill="#498d6a" d="M 115.5,137.5 C 133.126,138.686 150.46,140.019 167.5,141.5C 153.496,141.667 139.496,141.5 125.5,141C 121.654,140.987 118.321,139.82 115.5,137.5 Z"/></g>
<g><path style="opacity:1" fill="#357e56" d="M 186.5,147.5 C 189.472,149.12 192.472,150.786 195.5,152.5C 195.901,154.434 196.901,155.934 198.5,157C 197.944,157.383 197.611,157.883 197.5,158.5C 194.167,154.5 190.5,150.833 186.5,147.5 Z"/></g>
<g><path style="opacity:1" fill="#2a754d" d="M 110.5,153.5 C 115.928,155.716 121.594,156.883 127.5,157C 141.833,157.333 156.167,157.667 170.5,158C 176.117,159.456 180.45,162.622 183.5,167.5C 182.883,167.611 182.383,167.944 182,168.5C 179.637,166.06 177.137,163.727 174.5,161.5C 171.5,160.833 168.5,160.167 165.5,159.5C 149.844,158.667 134.177,158.167 118.5,158C 116.212,157.178 113.878,156.511 111.5,156C 110.748,155.329 110.414,154.496 110.5,153.5 Z"/></g>
<g><path style="opacity:1" fill="#50936f" d="M 10.5,166.5 C 11.4834,170.298 11.8168,174.298 11.5,178.5C 10.0966,175.091 9.42993,171.425 9.5,167.5C 10.1667,167.5 10.5,167.167 10.5,166.5 Z"/></g>
<g><path style="opacity:1" fill="#3c835a" d="M 280.5,177.5 C 279.767,182.445 278.434,187.112 276.5,191.5C 276.335,188.15 276.502,184.817 277,181.5C 277.74,179.681 278.907,178.348 280.5,177.5 Z"/></g>
<g><path style="opacity:1" fill="#438761" d="M 187.5,175.5 C 188.647,179.646 188.814,183.98 188,188.5C 187.626,190.491 186.793,192.158 185.5,193.5C 186.167,187.5 186.833,181.5 187.5,175.5 Z"/></g>
<g><path style="opacity:1" fill="#4e926d" d="M 11.5,179.5 C 13.3428,181.547 14.6762,184.047 15.5,187C 14.6634,188.011 14.33,189.178 14.5,190.5C 13.0552,187.063 12.0552,183.397 11.5,179.5 Z"/></g>
<g><path style="opacity:1" fill="#4d8f6a" d="M 14.5,190.5 C 15.8014,191.64 16.9681,192.973 18,194.5C 18.8516,198.189 19.6849,201.856 20.5,205.5C 17.7344,200.883 15.7344,195.883 14.5,190.5 Z"/></g>
<g><path style="opacity:1" fill="#498c65" d="M 185.5,193.5 C 183.1,199.566 178.767,203.566 172.5,205.5C 172.833,204.833 173.167,204.167 173.5,203.5C 174.32,201.86 175.153,200.193 176,198.5C 177.049,199.517 178.216,199.684 179.5,199C 180.416,195.915 182.416,194.082 185.5,193.5 Z"/></g>
<g><path style="opacity:1" fill="#338055" d="M 201.5,165.5 C 202.15,165.804 202.817,166.137 203.5,166.5C 204.522,169.441 205.355,172.441 206,175.5C 206.374,181.81 206.54,187.976 206.5,194C 204.398,195.733 204.065,197.733 205.5,200C 204.159,203.006 201.825,204.506 198.5,204.5C 205.096,191.942 206.096,178.942 201.5,165.5 Z"/></g>
<g><path style="opacity:1" fill="#42895f" d="M 173.5,203.5 C 173.167,204.167 172.833,204.833 172.5,205.5C 170.586,206.185 168.586,206.685 166.5,207C 141.5,207.333 116.5,207.667 91.5,208C 90.5838,208.374 89.7504,208.874 89,209.5C 85.8353,214.366 86.6686,218.533 91.5,222C 106.83,222.5 122.163,222.667 137.5,222.5C 137.334,228.176 137.501,233.843 138,239.5C 138.573,241.641 139.406,243.641 140.5,245.5C 139.577,246.303 138.577,246.47 137.5,246C 138.28,244.927 138.113,243.76 137,242.5C 136.501,236.509 136.334,230.509 136.5,224.5C 120.486,224.833 104.486,224.499 88.5,223.5C 87.4986,220.827 85.9986,218.493 84,216.5C 83.51,217.793 83.3433,219.127 83.5,220.5C 82.448,220.649 81.448,220.483 80.5,220C 81.5156,219.481 82.1822,218.647 82.5,217.5C 81.8333,215.833 81.1667,214.167 80.5,212.5C 81.8996,210.075 83.0662,210.408 84,213.5C 86.0563,209.007 89.223,205.674 93.5,203.5C 120.167,204.815 146.833,204.815 173.5,203.5 Z"/></g>
<g><path style="opacity:1" fill="#358156" d="M 276.5,191.5 C 273.426,202.311 268.759,212.311 262.5,221.5C 262.218,218.653 262.218,215.987 262.5,213.5C 261.975,212.808 261.308,212.308 260.5,212C 262.519,212.152 264.519,212.652 266.5,213.5C 269.116,207.618 271.616,200.951 274,193.5C 274.417,192.244 275.25,191.577 276.5,191.5 Z"/></g>
<g><path style="opacity:1" fill="#529470" d="M 20.5,206.5 C 21.7206,207.028 22.8873,207.695 24,208.5C 25.1449,211.432 25.9782,214.432 26.5,217.5C 23.7417,214.322 21.7417,210.655 20.5,206.5 Z"/></g>
<g><path style="opacity:1" fill="#2f7c50" d="M 198.5,204.5 C 197.012,210.508 193.678,215.341 188.5,219C 185.943,218.719 183.276,218.886 180.5,219.5C 187.693,215.977 193.693,210.977 198.5,204.5 Z"/></g>
<g><path style="opacity:1" fill="#1a7044" d="M 180.5,219.5 C 178.326,221.081 175.993,222.581 173.5,224C 167.843,224.499 162.176,224.666 156.5,224.5C 156.666,230.842 156.5,237.175 156,243.5C 151.789,247.053 146.956,248.553 141.5,248C 140.748,247.329 140.414,246.496 140.5,245.5C 146.542,247.901 150.876,246.235 153.5,240.5C 154.489,235.025 154.822,229.358 154.5,223.5C 158.371,223.815 162.038,223.482 165.5,222.5C 170.716,222.538 175.716,221.538 180.5,219.5 Z"/></g>
<g><path style="opacity:1" fill="#368056" d="M 29.5,222.5 C 34.571,223.906 36.9044,227.239 36.5,232.5C 33.3954,229.725 31.0621,226.392 29.5,222.5 Z"/></g>
<g><path style="opacity:1" fill="#3d855d" d="M 262.5,221.5 C 254.948,234.571 245.281,246.071 233.5,256C 227.282,260.939 220.615,265.106 213.5,268.5C 213.881,267.069 214.881,266.236 216.5,266C 216.167,265.667 215.833,265.333 215.5,265C 216.793,264.51 218.127,264.343 219.5,264.5C 219.33,263.178 219.663,262.011 220.5,261C 223,260.115 225.333,258.948 227.5,257.5C 226.355,256.109 226.355,254.776 227.5,253.5C 228.842,255.005 230.508,255.672 232.5,255.5C 232.67,254.178 232.337,253.011 231.5,252C 233.134,251.506 234.801,251.34 236.5,251.5C 237.801,249.328 238.801,246.995 239.5,244.5C 240.833,244.5 242.167,244.5 243.5,244.5C 243.833,241.5 245.5,239.833 248.5,239.5C 249.294,237.127 250.294,234.794 251.5,232.5C 254.088,230.243 256.421,227.743 258.5,225C 257.483,223.951 257.316,222.784 258,221.5C 259.716,222.552 260.716,221.886 261,219.5C 261.278,220.416 261.778,221.082 262.5,221.5 Z"/></g>
<g><path style="opacity:0.516" fill="#8ac4a9" d="M 165.5,222.5 C 162.038,223.482 158.371,223.815 154.5,223.5C 154.822,229.358 154.489,235.025 153.5,240.5C 153.5,234.5 153.5,228.5 153.5,222.5C 157.5,222.5 161.5,222.5 165.5,222.5 Z"/></g>
<g><path style="opacity:1" fill="#327e55" d="M 36.5,232.5 C 38.8398,233.086 41.0065,234.086 43,235.5C 44.3289,239.243 46.4956,242.41 49.5,245C 48.944,245.383 48.6107,245.883 48.5,246.5C 44.1549,242.153 40.1549,237.486 36.5,232.5 Z"/></g>
<g><path style="opacity:1" fill="#579973" d="M 213.5,268.5 C 210.992,270.924 207.992,272.59 204.5,273.5C 205.598,272.603 205.598,271.77 204.5,271C 207.513,270.091 210.513,269.258 213.5,268.5 Z"/></g>
<g><path style="opacity:1" fill="#378057" d="M 61.5,257.5 C 63.4352,258.15 65.4352,258.483 67.5,258.5C 67.281,259.675 67.6143,260.675 68.5,261.5C 70.4086,262.348 72.4086,262.682 74.5,262.5C 74.3505,263.552 74.5172,264.552 75,265.5C 75.3333,265.167 75.6667,264.833 76,264.5C 80.9607,268.047 86.1274,271.213 91.5,274C 93.2182,274.346 94.8849,274.846 96.5,275.5C 97.086,275.291 97.586,274.957 98,274.5C 99.5893,276.026 101.423,277.193 103.5,278C 109.939,280.519 116.606,282.185 123.5,283C 124.858,283.934 126.192,284.768 127.5,285.5C 102.65,282.56 80.6503,273.227 61.5,257.5 Z"/></g>
<g><path style="opacity:1" fill="#529470" d="M 197.5,276.5 C 195.11,278.02 192.443,279.02 189.5,279.5C 189.389,278.883 189.056,278.383 188.5,278C 191.351,276.711 194.351,276.211 197.5,276.5 Z"/></g>
</svg>
